name ./resultDataOpenSim/trcMotMarkerGrf/sub09/grf-03-06.mot
datacolumns 19
datarows 27
range 0.98400000 1.08800000
endheader

                time	     ground_force_vx	     ground_force_vy	     ground_force_vz	     ground_force_px	     ground_force_py	     ground_force_pz	   l_ground_force_vx	   l_ground_force_vy	   l_ground_force_vz	   l_ground_force_px	   l_ground_force_py	   l_ground_force_pz	     ground_torque_x	     ground_torque_y	     ground_torque_z	   l_ground_torque_x	   l_ground_torque_y	   l_ground_torque_z	
          0.98400000	          0.00000000	          0.00000000	          0.00000000	          0.00000000	          0.00000000	          0.00000000	          2.66177607	        385.92040160	          0.85908957	          0.08640681	         -0.05000000	          0.12117894	          0.00000000	          0.00000000	          0.00000000	          0.00000000	         -2.29729513	          0.00000000	
          0.98800000	          0.00000000	          0.00000000	          0.00000000	          0.00000000	          0.00000000	          0.00000000	          5.76404065	        387.11383051	          0.31703333	          0.08637384	         -0.05000000	          0.12120552	          0.00000000	          0.00000000	          0.00000000	          0.00000000	         -2.54438826	          0.00000000	
          0.99200000	          0.00000000	          0.00000000	          0.00000000	          0.00000000	          0.00000000	          0.00000000	          9.04376808	        389.19605531	         -0.40305554	          0.08626002	         -0.05000000	          0.12118746	          0.00000000	          0.00000000	          0.00000000	          0.00000000	         -2.80515647	          0.00000000	
          0.99600000	          0.00000000	          0.00000000	          0.00000000	          0.00000000	          0.00000000	          0.00000000	         12.44628090	        392.08409739	         -1.32133884	          0.08614236	         -0.05000000	          0.12115535	          0.00000000	          0.00000000	          0.00000000	          0.00000000	         -3.08009755	          0.00000000	
          1.00000000	          0.00000000	          0.00000000	          0.00000000	          0.00000000	          0.00000000	          0.00000000	         15.95204470	        395.62761697	         -2.43829445	          0.08610205	         -0.05000000	          0.12116771	          0.00000000	          0.00000000	          0.00000000	          0.00000000	         -3.36809591	          0.00000000	
          1.00400000	          0.00000000	          0.00000000	          0.00000000	          0.00000000	          0.00000000	          0.00000000	         19.55172674	        399.71830647	         -3.72659712	          0.08620366	         -0.05000000	          0.12128441	          0.00000000	          0.00000000	          0.00000000	          0.00000000	         -3.66608557	          0.00000000	
          1.00800000	          0.00000000	          0.00000000	          0.00000000	          0.00000000	          0.00000000	          0.00000000	         23.20403706	        404.37555418	         -5.12595168	          0.08642348	         -0.05000000	          0.12149507	          0.00000000	          0.00000000	          0.00000000	          0.00000000	         -3.96883779	          0.00000000	
          1.01200000	          0.00000000	          0.00000000	          0.00000000	          0.00000000	          0.00000000	          0.00000000	         26.83777406	        409.73105922	         -6.54806725	          0.08669458	         -0.05000000	          0.12175455	          0.00000000	          0.00000000	          0.00000000	          0.00000000	         -4.26914788	          0.00000000	
          1.01600000	          0.00000000	          0.00000000	          0.00000000	          0.00000000	          0.00000000	          0.00000000	         30.37977493	        415.96029434	         -7.89303974	          0.08696761	         -0.05000000	          0.12201700	          0.00000000	          0.00000000	          0.00000000	          0.00000000	         -4.55862808	          0.00000000	
          1.02000000	          0.00000000	          0.00000000	          0.00000000	          0.00000000	          0.00000000	          0.00000000	         33.76849789	        423.21713204	         -9.07140316	          0.08724724	         -0.05000000	          0.12228423	          0.00000000	          0.00000000	          0.00000000	          0.00000000	         -4.82893325	          0.00000000	
          1.02400000	          0.00000000	          0.00000000	          0.00000000	          0.00000000	          0.00000000	          0.00000000	         36.95073488	        431.58928613	        -10.02213134	          0.08756499	         -0.05000000	          0.12258359	          0.00000000	          0.00000000	          0.00000000	          0.00000000	         -5.07295077	          0.00000000	
          1.02800000	          0.00000000	          0.00000000	          0.00000000	          0.00000000	          0.00000000	          0.00000000	         39.88088800	        441.08573806	        -10.71866008	          0.08792651	         -0.05000000	          0.12289375	          0.00000000	          0.00000000	          0.00000000	          0.00000000	         -5.28556167	          0.00000000	
          1.03200000	          0.00000000	          0.00000000	          0.00000000	          0.00000000	          0.00000000	          0.00000000	         42.53184351	        451.65582396	        -11.15739803	          0.08830319	         -0.05000000	          0.12316212	          0.00000000	          0.00000000	          0.00000000	          0.00000000	         -5.46388123	          0.00000000	
          1.03600000	          0.00000000	          0.00000000	          0.00000000	          0.00000000	          0.00000000	          0.00000000	         44.91230839	        463.22761682	        -11.33732100	          0.08866049	         -0.05000000	          0.12336451	          0.00000000	          0.00000000	          0.00000000	          0.00000000	         -5.60712438	          0.00000000	
          1.04000000	          0.00000000	          0.00000000	          0.00000000	          0.00000000	          0.00000000	          0.00000000	         47.08188206	        475.73385780	        -11.25841590	          0.08897922	         -0.05000000	          0.12350826	          0.00000000	          0.00000000	          0.00000000	          0.00000000	         -5.71629791	          0.00000000	
          1.04400000	          0.00000000	          0.00000000	          0.00000000	          0.00000000	          0.00000000	          0.00000000	         49.15183423	        489.09027455	        -10.93954896	          0.08925680	         -0.05000000	          0.12360899	          0.00000000	          0.00000000	          0.00000000	          0.00000000	         -5.79385029	          0.00000000	
          1.04800000	          0.00000000	          0.00000000	          0.00000000	          0.00000000	          0.00000000	          0.00000000	         51.26293545	        503.14894466	        -10.42204668	          0.08948586	         -0.05000000	          0.12367591	          0.00000000	          0.00000000	          0.00000000	          0.00000000	         -5.84332586	          0.00000000	
          1.05200000	          0.00000000	          0.00000000	          0.00000000	          0.00000000	          0.00000000	          0.00000000	         53.55057432	        517.69715633	         -9.75427066	          0.08963754	         -0.05000000	          0.12370552	          0.00000000	          0.00000000	          0.00000000	          0.00000000	         -5.86903482	          0.00000000	
          1.05600000	          0.00000000	          0.00000000	          0.00000000	          0.00000000	          0.00000000	          0.00000000	         56.12110501	        532.51549158	         -8.98445104	          0.08969075	         -0.05000000	          0.12369364	          0.00000000	          0.00000000	          0.00000000	          0.00000000	         -5.87572800	          0.00000000	
          1.06000000	          0.00000000	          0.00000000	          0.00000000	          0.00000000	          0.00000000	          0.00000000	         59.05320432	        547.42206678	         -8.16329393	          0.08966429	         -0.05000000	          0.12364373	          0.00000000	          0.00000000	          0.00000000	          0.00000000	         -5.86824007	          0.00000000	
          1.06400000	          0.00000000	          0.00000000	          0.00000000	          0.00000000	          0.00000000	          0.00000000	         62.40819662	        562.24856761	         -7.33285544	          0.08959673	         -0.05000000	          0.12356038	          0.00000000	          0.00000000	          0.00000000	          0.00000000	         -5.85108736	          0.00000000	
          1.06800000	          0.00000000	          0.00000000	          0.00000000	          0.00000000	          0.00000000	          0.00000000	         66.22247772	        576.79994886	         -6.50506488	          0.08951899	         -0.05000000	          0.12345183	          0.00000000	          0.00000000	          0.00000000	          0.00000000	         -5.82808383	          0.00000000	
          1.07200000	          0.00000000	          0.00000000	          0.00000000	          0.00000000	          0.00000000	          0.00000000	         70.48865262	        590.87959683	         -5.66250189	          0.08945915	         -0.05000000	          0.12333643	          0.00000000	          0.00000000	          0.00000000	          0.00000000	         -5.80207639	          0.00000000	
          1.07600000	          0.00000000	          0.00000000	          0.00000000	          0.00000000	          0.00000000	          0.00000000	         75.15159490	        604.35262743	         -4.78763639	          0.08945767	         -0.05000000	          0.12324891	          0.00000000	          0.00000000	          0.00000000	          0.00000000	         -5.77482769	          0.00000000	
          1.08000000	          0.00000000	          0.00000000	          0.00000000	          0.00000000	          0.00000000	          0.00000000	         80.12090696	        617.18117566	         -3.88952962	          0.08959244	         -0.05000000	          0.12325303	          0.00000000	          0.00000000	          0.00000000	          0.00000000	         -5.74696563	          0.00000000	
          1.08400000	          0.00000000	          0.00000000	          0.00000000	          0.00000000	          0.00000000	          0.00000000	         85.29506593	        629.45017863	         -3.00684594	          0.08993607	         -0.05000000	          0.12339811	          0.00000000	          0.00000000	          0.00000000	          0.00000000	         -5.71790296	          0.00000000	
          1.08800000	          0.00000000	          0.00000000	          0.00000000	          0.00000000	          0.00000000	          0.00000000	         90.60023754	        641.37387084	         -2.18975551	          0.09045159	         -0.05000000	          0.12365635	          0.00000000	          0.00000000	          0.00000000	          0.00000000	         -5.68573342	          0.00000000	
